<svg xmlns="http://www.w3.org/2000/svg" version="1.1" xmlns:xlink="http://www.w3.org/1999/xlink" xmlns:svgjs="http://svgjs.com/svgjs" width="1440" height="560" preserveAspectRatio="none" viewBox="0 0 1440 560"><g mask="url(&quot;#SvgjsMask1015&quot;)" fill="none"><rect width="1440" height="560" x="0" y="0" fill="#0e2a47"></rect><path d="M 0,118 C 57.6,104.8 172.8,39.8 288,52 C 403.2,64.2 460.8,184.8 576,179 C 691.2,173.2 748.8,32.6 864,23 C 979.2,13.4 1036.8,126.4 1152,131 C 1267.2,135.6 1382.4,63 1440,46L1440 560L0 560z" fill="#0672c9"></path><path d="M 0,316 C 57.6,306 172.8,261.4 288,266 C 403.2,270.6 460.8,339.8 576,339 C 691.2,338.2 748.8,261.6 864,262 C 979.2,262.4 1036.8,343.4 1152,341 C 1267.2,338.6 1382.4,268.2 1440,250L1440 560L0 560z" fill="#184a7e"></path><path d="M 0,503 C 96,491 288,439.6 480,443 C 672,446.4 768,533.2 960,520 C 1152,506.8 1344,405.6 1440,377L1440 560L0 560z" fill="#2264ab"></path></g><defs><mask id="SvgjsMask1015"><rect width="1440" height="560" fill="#ffffff"></rect></mask></defs></svg>